<svg id="Layer_1" data-name="Layer 1" xmlns="http://www.w3.org/2000/svg" viewBox="0 0 32 32"><path d="M28,6.3a8,8,0,0,0-4.92-5.1,22.68,22.68,0,0,0-14.56,0A7.39,7.39,0,0,0,3.9,6.3,17.84,17.84,0,0,0,3,12.2c0,4.1,1.51,12.2,11.74,19.3l.41.3a1.45,1.45,0,0,0,.7.2,1.85,1.85,0,0,0,.7-.2h.1l.5-.3C27.39,24.4,29,16.3,29,12.2A21.46,21.46,0,0,0,28,6.3ZM22.47,3.2a6.16,6.16,0,0,1,3.72,3.7,20.05,20.05,0,0,1,.8,5.3c0,4.6-2,9.1-5.82,13.2a30.87,30.87,0,0,1-4.72,4.1l-.1.1c-.1,0-.1.1-.2.1l-.2.2h-.1c-.1,0-.1-.1-.2-.1a.1.1,0,0,1-.1-.1,37.53,37.53,0,0,1-4.72-4.1C6.91,21.5,4.91,17,4.91,12.3A20.67,20.67,0,0,1,5.71,7,5.72,5.72,0,0,1,9.32,3.2,21.11,21.11,0,0,1,22.47,3.2Z"/><path d="M16,18.9a7.11,7.11,0,0,0,7-7,7,7,0,1,0-7,7Zm0-12a5,5,0,0,1,5,5,5.09,5.09,0,0,1-5,5,5,5,0,1,1,0-10Z"/></svg>