<svg id="Layer_1" data-name="Layer 1" xmlns="http://www.w3.org/2000/svg" viewBox="0 0 32 32"><path d="M28.88,21.26c-2.26-1.72-5.46-2.84-7-1.42-.51.51-1.65,1.52-5.15-1.42h0C11,13.05,11.26,11.13,12.29,10c1.44-1.52.41-4.66-1.34-6.89C8.78.38,6.21-.63,4.14.38a6.53,6.53,0,0,0-4,4.67C-.8,9.71,3.63,15.69,7.44,19.94c.72.81,1.45,1.52,2.17,2.33l.41.41C14.45,27,20.53,32,25.58,32a4.36,4.36,0,0,0,1.14-.1,6.64,6.64,0,0,0,5-3.95C32.59,25.92,31.56,23.39,28.88,21.26Zm-13.6-1.32c2.06,1.72,5.25,3.75,7.93,1.42.42-.3,2.37,0,4.44,1.52C29.09,24,30.43,25.72,29.71,27a4.45,4.45,0,0,1-3.4,2.84c-3.3.51-8.77-2.63-14.85-8.71l-.31-.31c-.72-.71-1.44-1.41-2.16-2.23H9C4,13.15,1.57,8.49,2.19,5.45A4.69,4.69,0,0,1,5.07,2.21c1.34-.71,3.09.71,4.13,2.13,1.54,2,1.85,3.95,1.44,4.35-2.89,3,.1,6.89,3.92,10.64"/></svg>