<svg id="Layer_1" data-name="Layer 1" xmlns="http://www.w3.org/2000/svg" viewBox="0 0 32 32"><path d="M16,32A16,16,0,1,1,32,16,16,16,0,0,1,16,32ZM16,2A14,14,0,1,0,30,16,14,14,0,0,0,16,2Z"/><path d="M16,8a5,5,0,1,1-5,5,5,5,0,0,1,5-5m0-2a7,7,0,1,0,7,7,7,7,0,0,0-7-7Z"/><path d="M5.64,27.85a.65.65,0,0,1-.19,0,1,1,0,0,1-.79-1.17A10.7,10.7,0,0,1,15.16,18h1.68a10.7,10.7,0,0,1,10.5,8.67,1,1,0,0,1-.79,1.17A1,1,0,0,1,25.38,27a8.72,8.72,0,0,0-8.54-7H15.16A8.72,8.72,0,0,0,6.62,27,1,1,0,0,1,5.64,27.85Z"/></svg>