<svg id="Layer_1" data-name="Layer 1" xmlns="http://www.w3.org/2000/svg" viewBox="0 0 32 32"><path d="M31.05,3H9.8a1,1,0,0,0-1,1V4.2H3.06a1,1,0,0,0-1,.86L.89,12.64a1,1,0,0,0-.89,1v10a1,1,0,0,0,1,1H4a5,5,0,0,0,9.9,0H18a5,5,0,0,0,9.89,0H31.1a1,1,0,0,0,.72-.3,1,1,0,0,0,.18-.72V4A1,1,0,0,0,31.05,3ZM3.91,6.24H8.8v6.38H2.93ZM8.92,27A3,3,0,0,1,6,24.71a2.87,2.87,0,0,1-.12-.83,3.13,3.13,0,0,1,.25-1.22,3,3,0,0,1,5.53,0,3.31,3.31,0,0,1,.24,1.22,3.26,3.26,0,0,1-.11.83A3,3,0,0,1,8.92,27ZM23,27a3,3,0,0,1-2.89-2.24,2.87,2.87,0,0,1-.12-.83,3.13,3.13,0,0,1,.25-1.22,3,3,0,0,1,5.53,0A3.31,3.31,0,0,1,26,23.88a3.26,3.26,0,0,1-.11.83A3,3,0,0,1,23,27Zm4.87-4.29a5,5,0,0,0-9.74,0H13.8a5,5,0,0,0-9.75,0H2V14.71l7.8,0a1,1,0,0,0,1-1V5.22h0V5.05H30V22.66Z"/></svg>