<svg width="46" height="30" viewBox="0 0 46 30" fill="none" xmlns="http://www.w3.org/2000/svg">
<g clip-path="url(#clip0_5857_2333)">
<path fill-rule="evenodd" clip-rule="evenodd" d="M41.2921 18.2929C41.6826 17.9024 42.3158 17.9024 42.7063 18.2929C43.8788 19.4653 44.5992 21.0141 44.5992 22.8C44.5992 26.2523 41.8515 29 38.3992 29C35.0656 29 32.3193 26.3785 32.1999 23.0357C32.1802 22.4838 32.6116 22.0203 33.1635 22.0006C33.7155 21.9809 34.1789 22.4124 34.1986 22.9643C34.2792 25.2215 36.1329 27 38.3992 27C40.7469 27 42.5992 25.1477 42.5992 22.8C42.5992 21.5859 42.1197 20.5347 41.2921 19.7071C40.9016 19.3166 40.9016 18.6834 41.2921 18.2929Z" fill="black"/>
<path fill-rule="evenodd" clip-rule="evenodd" d="M1.09961 23C1.09961 17.8477 5.24732 13.7 10.3996 13.7C15.5519 13.7 19.6996 17.8477 19.6996 23C19.6996 23.2652 19.5943 23.5196 19.4067 23.7071C19.2192 23.8946 18.9648 24 18.6996 24H2.09961C1.54732 24 1.09961 23.5523 1.09961 23ZM3.16676 22H17.6325C17.1486 18.4297 14.1079 15.7 10.3996 15.7C6.6913 15.7 3.65062 18.4297 3.16676 22Z" fill="black"/>
<path fill-rule="evenodd" clip-rule="evenodd" d="M34.7542 13.1614C38.7343 11.6851 43.4737 13.5989 45.299 17.3637C45.54 17.8607 45.3325 18.4589 44.8355 18.6998C44.3385 18.9408 43.7404 18.7332 43.4994 18.2363C42.1253 15.4021 38.4667 13.916 35.4474 15.0374L35.441 15.0398L35.441 15.0398C34.5085 15.3789 33.6448 15.9789 32.9466 16.7644C32.5797 17.1771 31.9476 17.2143 31.5349 16.8474C31.1221 16.4805 31.0849 15.8484 31.4518 15.4356C32.3529 14.422 33.488 13.6225 34.7542 13.1614Z" fill="black"/>
<path fill-rule="evenodd" clip-rule="evenodd" d="M10.3992 29.3C6.94693 29.3 4.19922 26.5523 4.19922 23.1H6.19922C6.19922 25.4477 8.0515 27.3 10.3992 27.3C12.7469 27.3 14.5992 25.4477 14.5992 23.1H16.5992C16.5992 26.5523 13.8515 29.3 10.3992 29.3Z" fill="black"/>
<path fill-rule="evenodd" clip-rule="evenodd" d="M21.3008 1C21.3008 0.447715 21.7485 0 22.3008 0H27.4008C27.7593 0 28.0904 0.191957 28.2686 0.503108L35.3686 12.9031C35.643 13.3824 35.477 13.9934 34.9977 14.2678C34.5184 14.5422 33.9074 14.3762 33.633 13.8969L26.821 2H22.3008C21.7485 2 21.3008 1.55228 21.3008 1Z" fill="black"/>
<path fill-rule="evenodd" clip-rule="evenodd" d="M8.58534 9.2C12.005 9.09994 15.1412 9.18803 18.3908 11.0287C21.1038 12.5488 23.269 15.1448 24.2487 18.0838C24.4233 18.6077 24.1402 19.174 23.6162 19.3487C23.0923 19.5233 22.526 19.2402 22.3513 18.7162C21.5312 16.256 19.6974 14.0527 17.4114 12.7725L17.407 12.77L17.407 12.77C14.6621 11.2146 12.0032 11.1003 8.6294 11.1996C8.6196 11.1999 8.6098 11.2 8.6 11.2H8C7.44772 11.2 7 10.7523 7 10.2C7 9.64772 7.44772 9.2 8 9.2H8.58534Z" fill="black"/>
<path fill-rule="evenodd" clip-rule="evenodd" d="M45.3302 17.4339C45.5324 17.9478 45.2797 18.5284 44.7657 18.7306L32.5657 23.5306C32.5493 23.537 32.5326 23.5431 32.5158 23.5487C31.55 23.8706 30.5395 24.1 29.3996 24.1H2.09961C1.54732 24.1 1.09961 23.6523 1.09961 23.1C1.09961 22.5477 1.54732 22.1 2.09961 22.1H29.3996C30.2512 22.1 31.0336 21.9327 31.8586 21.6595L44.0335 16.8694C44.5474 16.6672 45.128 16.9199 45.3302 17.4339Z" fill="black"/>
<path fill-rule="evenodd" clip-rule="evenodd" d="M0 5.7C0 5.14771 0.447715 4.7 1 4.7H10.9C11.4523 4.7 11.9 5.14771 11.9 5.7C11.9 6.25228 11.4523 6.7 10.9 6.7H1C0.447715 6.7 0 6.25228 0 5.7Z" fill="black"/>
<path fill-rule="evenodd" clip-rule="evenodd" d="M1.80078 10.2C1.80078 9.64771 2.2485 9.2 2.80078 9.2H4.80078C5.35307 9.2 5.80078 9.64771 5.80078 10.2C5.80078 10.7523 5.35307 11.2 4.80078 11.2H2.80078C2.2485 11.2 1.80078 10.7523 1.80078 10.2Z" fill="black"/>
<path fill-rule="evenodd" clip-rule="evenodd" d="M3.19922 1C3.19922 0.447715 3.64693 0 4.19922 0H11.2992C11.8515 0 12.2992 0.447715 12.2992 1C12.2992 1.55228 11.8515 2 11.2992 2H4.19922C3.64693 2 3.19922 1.55228 3.19922 1Z" fill="black"/>
</g>
<defs>
<clipPath id="clip0_5857_2333">
<rect width="45.4" height="29.3" fill="white"/>
</clipPath>
</defs>
</svg>
