<svg id="Layer_1" data-name="Layer 1" xmlns="http://www.w3.org/2000/svg" viewBox="0 0 32 32"><path d="M16,2a13.89,13.89,0,0,1,2.13.16V5.73l1.34.47a10.2,10.2,0,0,1,3.27,1.89L23.82,9l1.23-.71,1.86-1.08a13.94,13.94,0,0,1,2.14,3.69L27.18,12,26,12.7l.26,1.39a10.55,10.55,0,0,1,0,3.8L26,19.28l1.23.71,1.88,1.09a14.22,14.22,0,0,1-2.14,3.69l-1.86-1.08L23.83,23l-1.07.92a10.56,10.56,0,0,1-3.3,1.9l-1.33.47v3.57A13.7,13.7,0,0,1,16,30a13.89,13.89,0,0,1-2.13-.16V26.27l-1.34-.47a10.23,10.23,0,0,1-3.27-1.9L8.18,23,7,23.69,5.09,24.77A14.1,14.1,0,0,1,3,21.08L4.82,20l1.23-.71L5.79,17.9a10.55,10.55,0,0,1,0-3.8l.26-1.39L4.82,12,3,10.92A14.47,14.47,0,0,1,5.08,7.23L6.94,8.31,8.16,9,9.24,8.1a10.56,10.56,0,0,1,3.3-1.9l1.33-.47V2.16A13.7,13.7,0,0,1,16,2m0,21a7,7,0,1,0-7-7,7,7,0,0,0,7,7M16,0a15.91,15.91,0,0,0-3.53.39.76.76,0,0,0-.6.75V4.32A12.66,12.66,0,0,0,7.94,6.58L5.2,5a.75.75,0,0,0-.38-.1.77.77,0,0,0-.57.25,15.93,15.93,0,0,0-3.53,6.1.78.78,0,0,0,.35.91l2.75,1.59a12.27,12.27,0,0,0,0,4.52L1.07,19.85a.79.79,0,0,0-.35.9,16,16,0,0,0,3.53,6.11.79.79,0,0,0,.57.25A.72.72,0,0,0,5.2,27L8,25.42a12.31,12.31,0,0,0,3.92,2.26v3.18a.77.77,0,0,0,.61.75A16.23,16.23,0,0,0,16,32a15.91,15.91,0,0,0,3.53-.39.76.76,0,0,0,.6-.75V27.68a12.5,12.5,0,0,0,3.92-2.26L26.8,27a.79.79,0,0,0,1-.15,16,16,0,0,0,3.53-6.11.8.8,0,0,0-.36-.9l-2.75-1.59a12.77,12.77,0,0,0,0-4.53l2.75-1.59a.78.78,0,0,0,.35-.9,16.06,16.06,0,0,0-3.53-6.1.76.76,0,0,0-.57-.26A.73.73,0,0,0,26.8,5L24.05,6.57a12.31,12.31,0,0,0-3.92-2.26V1.14a.77.77,0,0,0-.61-.75A16.23,16.23,0,0,0,16,0Zm0,21a5,5,0,1,1,5-5,5,5,0,0,1-5,5Z"/></svg>