<svg id="Layer_1" data-name="Layer 1" xmlns="http://www.w3.org/2000/svg" viewBox="0 0 32 32"><path d="M16.07,26a1,1,0,0,0,1-1V20.92a1,1,0,1,0-2,0V25A1,1,0,0,0,16.07,26Z"/><path d="M21.5,26h.17a1,1,0,0,0,1-.85l.68-4.07a1,1,0,0,0-.82-1.18,1,1,0,0,0-1.16.84l-.67,4.07A1,1,0,0,0,21.5,26Z"/><path d="M10.43,26h.17a1,1,0,0,0,.82-1.18l-.68-4.07a1,1,0,0,0-1.15-.84,1,1,0,0,0-.82,1.18l.67,4.07A1,1,0,0,0,10.43,26Z"/><path d="M31,10.7H27.89L19.64,2.3a1,1,0,0,0-1.41,0,1,1,0,0,0,0,1.44l6.83,7H6.85l6.8-6.93a1,1,0,0,0,0-1.44,1,1,0,0,0-1.42,0L4.09,10.62a.56.56,0,0,0,0,.08H1a1,1,0,0,0-1,1v5.1a1,1,0,0,0,1,1H2.23L4.11,29.16a1,1,0,0,0,1,.84H27a1,1,0,0,0,1-.84l1.88-11.34H31a1,1,0,0,0,1-1v-5.1A1,1,0,0,0,31,10.7ZM26.15,28H5.94l-1.66-10H27.81ZM30,15.79H2V12.73H30Z"/></svg>