<svg id="Layer_1" data-name="Layer 1" xmlns="http://www.w3.org/2000/svg" viewBox="0 0 32 32"><path d="M32,25.61s0-.07,0-.11V6.5s0-.07,0-.11a1.42,1.42,0,0,0,0-.2A.61.61,0,0,0,31.85,6s0-.08-.05-.11,0,0-.05,0a1,1,0,0,0-.15-.14.91.91,0,0,0-.16-.11l-.17-.05-.2,0H.93l-.2,0-.17.07a.54.54,0,0,0-.16.1,1,1,0,0,0-.15.14.1.1,0,0,0,0,0S.17,6,.15,6l-.09.18a1.42,1.42,0,0,0,0,.2s0,.07,0,.11v19s0,.07,0,.11a1.42,1.42,0,0,0,0,.2c0,.07.06.12.09.18a1.17,1.17,0,0,0,.05.11l0,0a1,1,0,0,0,.24.2.47.47,0,0,0,.09.06,1,1,0,0,0,.42.1H31a1,1,0,0,0,.42-.1.47.47,0,0,0,.09-.06,1,1,0,0,0,.24-.2l.05,0s0-.07.05-.1a.66.66,0,0,0,.09-.19A1.18,1.18,0,0,0,32,25.61ZM2,8.49,12.06,16,2,23.51Zm14,8L4,7.5H28Zm-2.26.81,1.66,1.24.11.06.1.05a1.1,1.1,0,0,0,.39.09h0a1.1,1.1,0,0,0,.39-.09l.1-.05.11-.06,1.66-1.24L28,24.5H4ZM19.93,16,30,8.49v15Z"/></svg>