<svg version="1.1" id="Layer_1" xmlns="http://www.w3.org/2000/svg" x="0" y="0" viewBox="0 0 45.4 29.3" style="enable-background:new 0 0 45.4 29.3" xml:space="preserve">
  <style>
    .st1{fill:none;stroke:#000;stroke-width:2;stroke-linecap:round;stroke-linejoin:round;stroke-miterlimit:10}
  </style>
  <path d="M33.2 23c.1 2.8 2.4 5 5.2 5 2.9 0 5.2-2.3 5.2-5.2 0-1.5-.6-2.8-1.6-3.8" style="fill:none;stroke:#000;stroke-width:2;stroke-linecap:round;stroke-miterlimit:10"/>
  <path class="st1" d="M10.4 14.7c-4.6 0-8.3 3.7-8.3 8.3h16.6c0-4.6-3.7-8.3-8.3-8.3zM44.4 17.8c-1.6-3.3-5.8-5-9.3-3.7-1.1.4-2.1 1.1-2.9 2"/>
  <path d="M5.2 23.1c0 2.9 2.3 5.2 5.2 5.2s5.2-2.3 5.2-5.2" style="fill:none;stroke:#000;stroke-width:2;stroke-miterlimit:10"/>
  <path class="st1" d="M34.5 13.4 27.4 1h-5.1M23.3 18.4c-.9-2.7-2.9-5.1-5.4-6.5-3-1.7-5.9-1.8-9.3-1.7H8M44.4 17.8l-12.2 4.8c-.9.3-1.8.5-2.8.5H2.1M10.9 5.7H1M4.8 10.2h-2M11.3 1H4.2"/>
</svg>
