<svg id="Layer_1" data-name="Layer 1" xmlns="http://www.w3.org/2000/svg" viewBox="0 0 32 32"><defs><style>.cls-1{fill-rule:evenodd;}</style></defs><path class="cls-1" d="M28.77,5.17a11.33,11.33,0,0,1,0,5.93,4,4,0,0,1-.88,1.57,4.12,4.12,0,0,1-1.5,1,12,12,0,0,1-3.56.58,9.82,9.82,0,0,1-3.56-.58,4.16,4.16,0,0,1-1.47-1,4.1,4.1,0,0,1-.9-1.55,10.9,10.9,0,0,1,0-5.94,3.81,3.81,0,0,1,.89-1.56,3.78,3.78,0,0,1,1.49-1,10.73,10.73,0,0,1,7.12,0,3.87,3.87,0,0,1,1.48,1A3.91,3.91,0,0,1,28.77,5.17ZM25.1,9.57a4.9,4.9,0,0,0,.21-1.43h0a4.91,4.91,0,0,0-.23-1.47,1.8,1.8,0,0,0-.53-.82,1.77,1.77,0,0,0-.87-.42,5.12,5.12,0,0,0-1.83,0,2,2,0,0,0-.87.43,1.91,1.91,0,0,0-.53.81,4.94,4.94,0,0,0,0,2.9,1.86,1.86,0,0,0,.52.82,1.82,1.82,0,0,0,.88.43,5.12,5.12,0,0,0,1.83,0,1.88,1.88,0,0,0,1.4-1.25Zm-10,8.73a10.9,10.9,0,0,1,0,5.94,3.75,3.75,0,0,1-.88,1.58,3.79,3.79,0,0,1-1.5,1,10.71,10.71,0,0,1-7.11,0,4,4,0,0,1-1.49-1,4.14,4.14,0,0,1-.9-1.56,10.9,10.9,0,0,1,0-5.94,3.91,3.91,0,0,1,.89-1.57,3.82,3.82,0,0,1,1.5-1,10.71,10.71,0,0,1,7.11,0,4,4,0,0,1,1.48,1A3.91,3.91,0,0,1,15.08,18.3Zm-3.66,4.44a5,5,0,0,0,.22-1.43,5.23,5.23,0,0,0-.22-1.47A1.92,1.92,0,0,0,10.9,19a1.82,1.82,0,0,0-.88-.43,5.62,5.62,0,0,0-1.83,0,2,2,0,0,0-.87.44,1.89,1.89,0,0,0-.52.81,4.78,4.78,0,0,0,0,2.9,1.7,1.7,0,0,0,.52.82,1.65,1.65,0,0,0,.87.42A4.7,4.7,0,0,0,10,24a1.83,1.83,0,0,0,.87-.43A2,2,0,0,0,11.42,22.74ZM15.49,8.11H11.64a6.31,6.31,0,0,0-.19-1.43,1.78,1.78,0,0,0-.52-.82,1.81,1.81,0,0,0-.88-.42,5.12,5.12,0,0,0-1.83,0,1.93,1.93,0,0,0-.87.43,1.91,1.91,0,0,0-.53.81,4.94,4.94,0,0,0,0,2.9,1.86,1.86,0,0,0,.52.82,1.82,1.82,0,0,0,.88.43,5.12,5.12,0,0,0,1.83,0,2,2,0,0,0,.87-.44,2,2,0,0,0,.53-.81,4.54,4.54,0,0,0,.14-.66l3.63,1.69c-.05.16-.1.33-.14.5a4,4,0,0,1-.88,1.57,4.12,4.12,0,0,1-1.5,1,12,12,0,0,1-3.56.58,10.7,10.7,0,0,1-3.55-.58,4.2,4.2,0,0,1-1.48-1,4,4,0,0,1-.89-1.55,10.9,10.9,0,0,1,0-5.94A3.89,3.89,0,0,1,4.1,3.6a4,4,0,0,1,1.5-1,10.71,10.71,0,0,1,7.11,0,3.91,3.91,0,0,1,1.49,1,4,4,0,0,1,.9,1.55A11.25,11.25,0,0,1,15.49,8.11Zm.93,13.19a11.06,11.06,0,0,1,.39-3,3.59,3.59,0,0,1,.93-1.55,3.7,3.7,0,0,1,1.56-.92,10.71,10.71,0,0,1,7.11,0,3.91,3.91,0,0,1,1.49,1,4,4,0,0,1,.9,1.55,10.93,10.93,0,0,1,0,5.95,3.81,3.81,0,0,1-.89,1.56,3.74,3.74,0,0,1-1.5,1,11.54,11.54,0,0,1-3.55.59l-1.32-3.59.15,0,.21.06a5.17,5.17,0,0,0,1.84,0,1.84,1.84,0,0,0,.84-.44,1.92,1.92,0,0,0,.52-.8,4.94,4.94,0,0,0,0-2.9,1.83,1.83,0,0,0-1.4-1.25,5.12,5.12,0,0,0-1.83,0,2,2,0,0,0-.87.44,1.91,1.91,0,0,0-.53.81,4.56,4.56,0,0,0-.2,1.42V30H16.42Z"/></svg>