<svg id="Layer_1" data-name="Layer 1" xmlns="http://www.w3.org/2000/svg" viewBox="0 0 32 32"><path d="M20.48,6.51a2.36,2.36,0,0,0-.54,0,2.32,2.32,0,0,0-.53,0,1,1,0,0,0-.8.71,2.75,2.75,0,0,0,0,1.67,1.07,1.07,0,0,0,.8.71,3.17,3.17,0,0,0,.53.05,3.29,3.29,0,0,0,.54-.05,1.07,1.07,0,0,0,.8-.71,3,3,0,0,0,0-1.67A1,1,0,0,0,20.48,6.51Z"/><path d="M16,0C13,0,3-.25,3,11,3,24.71,15,32,16,32s13-7.29,13-21C29-.25,19,0,16,0Zm-.5,17.36a2.25,2.25,0,0,1-1.39,1.49,6.21,6.21,0,0,1-4.11,0,2.27,2.27,0,0,1-1.39-1.49,6.21,6.21,0,0,1,0-3.42A2.27,2.27,0,0,1,10,12.45a6.23,6.23,0,0,1,2.06-.35,6.32,6.32,0,0,1,2.06.35,2.26,2.26,0,0,1,1.38,1.49,6.21,6.21,0,0,1,0,3.42ZM13.52,8a3.19,3.19,0,0,0-.13-.82,1,1,0,0,0-.8-.71,2.32,2.32,0,0,0-.53,0,2.47,2.47,0,0,0-.54,0,1.05,1.05,0,0,0-.8.71,3,3,0,0,0,0,1.67,1.09,1.09,0,0,0,.8.71,3.29,3.29,0,0,0,.54.05,3.07,3.07,0,0,0,.53-.05,1.07,1.07,0,0,0,.8-.71,2.74,2.74,0,0,0,.09-.39l2.1,1c0,.09-.05.19-.08.28a2.26,2.26,0,0,1-1.38,1.49,6.07,6.07,0,0,1-2.06.35A6,6,0,0,1,10,11.25,2.27,2.27,0,0,1,8.61,9.76a6.21,6.21,0,0,1,0-3.42A2.29,2.29,0,0,1,10,4.85a6.23,6.23,0,0,1,2.06-.35,6.32,6.32,0,0,1,2.06.35A2.28,2.28,0,0,1,15.5,6.34,6.07,6.07,0,0,1,15.74,8Zm9.87,9.32A2.27,2.27,0,0,1,22,18.85,6.22,6.22,0,0,1,20,19.2l-.75-2.07.21.07a3.07,3.07,0,0,0,.53.05,3.29,3.29,0,0,0,.54-.05,1.09,1.09,0,0,0,.8-.71,3,3,0,0,0,0-1.67,1,1,0,0,0-.8-.71,2.42,2.42,0,0,0-.54-.06,2.33,2.33,0,0,0-.53.06,1,1,0,0,0-.8.71,2.88,2.88,0,0,0-.13.83v5H16.26v-5a6.19,6.19,0,0,1,.24-1.71,2.25,2.25,0,0,1,1.39-1.49,6.21,6.21,0,0,1,4.11,0,2.27,2.27,0,0,1,1.39,1.49,6.21,6.21,0,0,1,0,3.42Zm0-7.6A2.26,2.26,0,0,1,22,11.25,6.07,6.07,0,0,1,20,11.6a6,6,0,0,1-2.06-.35A2.25,2.25,0,0,1,16.5,9.76a6.21,6.21,0,0,1,0-3.42,2.27,2.27,0,0,1,1.39-1.49,6.21,6.21,0,0,1,4.11,0,2.29,2.29,0,0,1,1.39,1.49,6.21,6.21,0,0,1,0,3.42Z"/><path d="M12.59,14.11a2.32,2.32,0,0,0-.53,0,2.47,2.47,0,0,0-.54,0,1.05,1.05,0,0,0-.8.71,3,3,0,0,0,0,1.67,1.07,1.07,0,0,0,.8.71,3.29,3.29,0,0,0,.54.05,3.07,3.07,0,0,0,.53-.05,1.07,1.07,0,0,0,.8-.71,2.75,2.75,0,0,0,0-1.67A1,1,0,0,0,12.59,14.11Z"/></svg>