<svg id="Layer_1" data-name="Layer 1" xmlns="http://www.w3.org/2000/svg" viewBox="0 0 32 32"><defs><style>.cls-1{fill-rule:evenodd;}</style></defs><path class="cls-1" d="M6.67,0A1.34,1.34,0,0,0,5.33,1.33V30.67A1.34,1.34,0,0,0,6.67,32H25.33a1.34,1.34,0,0,0,1.34-1.33V1.33A1.34,1.34,0,0,0,25.33,0ZM23,4.77a6.37,6.37,0,0,1,.21,1.62A6.79,6.79,0,0,1,22.94,8a2.11,2.11,0,0,1-.48.85,2.28,2.28,0,0,1-.82.55,6.34,6.34,0,0,1-1.93.31,5.33,5.33,0,0,1-1.94-.31,2.21,2.21,0,0,1-.8-.55A2.3,2.3,0,0,1,16.48,8a5.94,5.94,0,0,1,0-3.24A2.18,2.18,0,0,1,17,3.92a2.13,2.13,0,0,1,.82-.54,5.84,5.84,0,0,1,3.87,0,2.24,2.24,0,0,1,.81.55A2.3,2.3,0,0,1,23,4.77Zm-2,2.4a2.54,2.54,0,0,0,.12-.78h0a2.44,2.44,0,0,0-.13-.8,1,1,0,0,0-.28-.45,1.15,1.15,0,0,0-.47-.23,2.8,2.8,0,0,0-1,0,1,1,0,0,0-.47.24.92.92,0,0,0-.29.44,2.66,2.66,0,0,0,0,1.58,1,1,0,0,0,.28.45,1.07,1.07,0,0,0,.48.23,2.8,2.8,0,0,0,1,0,1.11,1.11,0,0,0,.47-.24A1,1,0,0,0,20.94,7.17ZM15.5,11.92a5.91,5.91,0,0,1,0,3.23,2.07,2.07,0,0,1-1.3,1.4,5.84,5.84,0,0,1-3.87,0A2.16,2.16,0,0,1,9.52,16,2.13,2.13,0,0,1,9,15.15a5.91,5.91,0,0,1,0-3.23,2.11,2.11,0,0,1,.48-.85,2.16,2.16,0,0,1,.82-.55,5.84,5.84,0,0,1,3.87,0,2.19,2.19,0,0,1,1.3,1.4Zm-2,2.41a2.53,2.53,0,0,0,.12-.77,2.72,2.72,0,0,0-.12-.8,1,1,0,0,0-.28-.45,1,1,0,0,0-.48-.23,2.8,2.8,0,0,0-1,0,1,1,0,0,0-.47.24,1,1,0,0,0-.28.44,2.63,2.63,0,0,0,0,1.57.89.89,0,0,0,.28.45,1,1,0,0,0,.47.23,2.8,2.8,0,0,0,1,0,1,1,0,0,0,.47-.23A1,1,0,0,0,13.5,14.33Zm2.22-8h-2.1a3.33,3.33,0,0,0-.1-.78,1,1,0,0,0-.29-.45,1.09,1.09,0,0,0-.47-.23,2.8,2.8,0,0,0-1,0,1.05,1.05,0,0,0-.47.24,1.09,1.09,0,0,0-.29.44,2.66,2.66,0,0,0,0,1.58,1,1,0,0,0,.28.45,1.07,1.07,0,0,0,.48.23,2.8,2.8,0,0,0,1,0,1.11,1.11,0,0,0,.47-.24,1.09,1.09,0,0,0,.29-.44,2.29,2.29,0,0,0,.07-.36l2,.92A2.68,2.68,0,0,0,15.5,8a2.13,2.13,0,0,1-.49.85,2.16,2.16,0,0,1-.81.55,6.4,6.4,0,0,1-1.94.31,5.74,5.74,0,0,1-1.93-.31,2.12,2.12,0,0,1-.8-.55A2.16,2.16,0,0,1,9,8,5.94,5.94,0,0,1,9,4.77a2.06,2.06,0,0,1,.48-.85,2,2,0,0,1,.82-.54,5.84,5.84,0,0,1,3.87,0,2.21,2.21,0,0,1,.8.55,2,2,0,0,1,.49.84A6.7,6.7,0,0,1,15.72,6.37Zm.5,7.18a6.24,6.24,0,0,1,.21-1.61,2.06,2.06,0,0,1,.51-.85,2,2,0,0,1,.85-.5,5.84,5.84,0,0,1,3.87,0,2.16,2.16,0,0,1,.81.55A2.13,2.13,0,0,1,23,12a5.91,5.91,0,0,1,0,3.23,2.11,2.11,0,0,1-.48.85,2.16,2.16,0,0,1-.82.55,6.67,6.67,0,0,1-1.93.32L19,15l.08,0,.12,0a2.8,2.8,0,0,0,1,0,1,1,0,0,0,.46-.24,1.05,1.05,0,0,0,.27-.44,2.66,2.66,0,0,0,0-1.58,1,1,0,0,0-.28-.44,1,1,0,0,0-.47-.23,2.41,2.41,0,0,0-1,0,.91.91,0,0,0-.47.23.92.92,0,0,0-.29.44,2.27,2.27,0,0,0-.11.78v4.73h-2.1Z"/></svg>