<svg id="Layer_1" data-name="Layer 1" xmlns="http://www.w3.org/2000/svg" viewBox="0 0 32 32"><path d="M16,0A16,16,0,1,0,32,16,16,16,0,0,0,16,0Zm0,30A14,14,0,1,1,30,16,14,14,0,0,1,16,30Z"/><path d="M15.89,20.32a1.58,1.58,0,0,0-1.14.46,1.5,1.5,0,0,0-.47,1.1,1.32,1.32,0,0,0,.13.6,1.57,1.57,0,0,0,.35.48,1.72,1.72,0,0,0,.51.33,1.63,1.63,0,0,0,.62.12A1.55,1.55,0,0,0,17,22.94a1.48,1.48,0,0,0,.47-1.1A1.4,1.4,0,0,0,17,20.76,1.59,1.59,0,0,0,15.89,20.32Z"/><path d="M19.11,9.71A4.31,4.31,0,0,0,17.74,9a5.15,5.15,0,0,0-1.63-.25A5.41,5.41,0,0,0,14.38,9,4.48,4.48,0,0,0,13,9.78a4.28,4.28,0,0,0-1,1.28,5,5,0,0,0-.51,1.71L13.9,13a2.71,2.71,0,0,1,.16-.78,1.92,1.92,0,0,1,.41-.67,2.09,2.09,0,0,1,.64-.46,1.91,1.91,0,0,1,.84-.17,1.78,1.78,0,0,1,1.39.53,1.84,1.84,0,0,1,.49,1.31,1.88,1.88,0,0,1-.27,1,3.91,3.91,0,0,1-.65.76l-.9.86a5.39,5.39,0,0,0-.63.68,3.05,3.05,0,0,0-.63,1.39,5.44,5.44,0,0,0-.07.86v.76h2.37v-.52a3.88,3.88,0,0,1,.06-.74,1.8,1.8,0,0,1,.21-.56,2.68,2.68,0,0,1,.4-.52c.17-.18.39-.38.65-.61s.59-.52.84-.77a5,5,0,0,0,.63-.77,3.35,3.35,0,0,0,.4-.88,4.2,4.2,0,0,0,.14-1.13A3.79,3.79,0,0,0,20,10.93,3.64,3.64,0,0,0,19.11,9.71Z"/></svg>