<svg id="Layer_1" data-name="Layer 1" xmlns="http://www.w3.org/2000/svg" viewBox="0 0 32 32"><path d="M2.35,28.08,16.06,4.46,29.77,28.08Zm29.32-.7L17.56,3.07A1.73,1.73,0,0,0,16.06,2a1.94,1.94,0,0,0-1.5,1.1L.35,27.38C-.45,28.77.15,30,1.85,30H30.17A1.6,1.6,0,0,0,31.67,27.38Z"/><path d="M14.52,24.19A1.44,1.44,0,0,1,15,23.1a1.54,1.54,0,0,1,1.13-.46,1.63,1.63,0,0,1,1.12.44,1.39,1.39,0,0,1,.48,1.07,1.48,1.48,0,0,1-.47,1.1,1.62,1.62,0,0,1-1.74.34,1.64,1.64,0,0,1-.51-.32,1.3,1.3,0,0,1-.35-.48A1.32,1.32,0,0,1,14.52,24.19Zm2.8-3h-2.4V11.48h2.4Z"/></svg>