<svg id="Layer_1" data-name="Layer 1" xmlns="http://www.w3.org/2000/svg" viewBox="0 0 32 32"><path d="M19.67,10.13,17.9,11.9H7a1,1,0,0,1,0-2H19A1,1,0,0,1,19.67,10.13Z"/><path d="M14.9,14.9l-2,2H7a1,1,0,0,1,0-2Z"/><path d="M20,15.9a1,1,0,0,1-1,1H17.13l2-2a1,1,0,0,1,.82.59h0A.85.85,0,0,1,20,15.9Z"/><path d="M19,21.9H7a1,1,0,0,1,0-2H19a1,1,0,1,1,0,2Z"/><path d="M24.08,10V30h-22V6H23.81l1.54-1.54a1.9,1.9,0,0,0-1-.44l-.28,0h-22a2,2,0,0,0-2,2V30a2,2,0,0,0,2,2h22a2,2,0,0,0,2-2V8Z"/><path d="M30.62,3.41,28.5,1.29a1,1,0,0,0-1.42,0L22.38,6,18.48,9.9l-5,5-1.33,1.33a1,1,0,0,0-.27.48l0,.19-.6,2.57a.78.78,0,0,0,0,.43,1,1,0,0,0,1.19.77L15.21,20a.64.64,0,0,0,.29-.13.62.62,0,0,0,.19-.14l2.85-2.86,1.4-1.39h0L30.62,4.82A1,1,0,0,0,30.62,3.41ZM15,19.06l-2.75.63.62-2.75,6.82-6.81L23.81,6l1.54-1.54h0L27.79,2l2.13,2.12Z"/><path d="M31.33,2.7,29.21.58a2.06,2.06,0,0,0-2.83,0L11.44,15.52a2.12,2.12,0,0,0-.54,1l-.09.41-.54,2.34a2.18,2.18,0,0,0,.54,1.87,2,2,0,0,0,1.4.58,1.8,1.8,0,0,0,.46-.05L15.42,21a2.11,2.11,0,0,0,1-.54L31.33,5.53a2,2,0,0,0,0-2.83ZM15,19.06l-2.75.63.62-2.75,6.82-6.81L23.81,6l1.54-1.54h0L27.79,2l2.13,2.12Z"/></svg>